# AST/ASF file generated using VICON BodyLanguage
# -----------------------------------------------
:version 1.10
:name VICON
:units
  mass 1.0
  length 0.45
  angle deg
:documentation
   .ast/.asf automatically generated from VICON data using
   VICON BodyBuilder and BodyLanguage model FoxedUp or BRILLIANT.MOD
:root
   order TX TY TZ RX RY RZ
   axis XYZ
   position 0 0 0  
   orientation 0 0 0 
:bonedata
  begin
     id 1 
     name lhipjoint
     direction 0.596438 -0.722117 0.35044 
     length 2.43043 
     axis 0 0 0  XYZ
  end
  begin
     id 2 
     name lfemur
     direction 0.34202 -0.939693 0  
     length 7.0339  
     axis 0 0 20  XYZ
    dof rx ry rz
    limits (-160.0 20.0)
           (-70.0 70.0)
           (-60.0 70.0)
  end
  begin
     id 3 
     name ltibia
     direction 0.34202 -0.939693 0   
     length 7.56602   
     axis 0 0 20   XYZ
    dof rx
    limits (-10.0 170.0)
  end
  begin
     id 4 
     name lfoot
     direction 0.0985677 -0.270812 0.957572   
     length 1.85172   
     axis -90 7.62852e-016 20   XYZ
    dof rx rz
    limits (-45.0 90.0)
           (-70.0 20.0)
  end
  begin
     id 5 
     name ltoes
     direction 1.53534e-011 -4.21843e-011 1   
     length 0.929904   
     axis -90 7.62852e-016 20   XYZ
    dof rx
    limits (-90.0 20.0)
  end
  begin
     id 6 
     name rhipjoint
     direction -0.585088 -0.729594 0.354068   
     length 2.40552  
     axis 0 0 0  XYZ 
  end
  begin
     id 7 
     name rfemur
     direction -0.34202 -0.939693 0   
     length 7.12573   
     axis 0 0 -20   XYZ
    dof rx ry rz
    limits (-160.0 20.0)
           (-70.0 70.0)
           (-70.0 60.0)
  end
  begin
     id 8 
     name rtibia
     direction -0.34202 -0.939693 0   
     length 7.35777   
     axis 0 0 -20   XYZ
    dof rx
    limits (-10.0 170.0)
 end
 begin
     id 9 
     name rfoot
     direction -0.120907 -0.33219 0.935431   
     length 2.0994  
     axis -90 -7.62852e-016 -20   XYZ
    dof rx rz
    limits (-45.0 90.0)
           (-20.0 70.0)
  end
  begin
     id 10 
     name rtoes
     direction -1.53577e-011 -4.21787e-011 1   
     length 1.04244   
     axis -90 -7.62852e-016 -20   XYZ
    dof rx
    limits (-90.0 20.0)
  end
  begin
     id 11 
     name lowerback
     direction 0.00268363 0.993603 -0.112896   
     length 2.15839   
     axis 0 0 0   XYZ
    dof rx ry rz
    limits (-20.0 45.0)
           (-30.0 30.0)
           (-30.0 30.0)
  end
  begin
     id 12 
     name upperback
     direction 0.0272563 0.999411 -0.0208618   
     length 2.16443   
     axis 0 0 0   XYZ
    dof rx ry rz
    limits (-20.0 45.0)
           (-30.0 30.0)
           (-30.0 30.0)
  end
  begin
     id 13 
     name thorax
     direction 0.0254655 0.999174 0.0316806   
     length 2.19003   
     axis 0 0 0   XYZ
    dof rx ry rz
    limits (-20.0 45.0)
           (-30.0 30.0)
           (-30.0 30.0)
  end
  begin
     id 14 
     name lowerneck
     direction -0.0102178 0.988048 0.15381   
     length 1.61507   
     axis 0 0 0   XYZ
    dof rx ry rz
    limits (-20.0 45.0)
           (-30.0 30.0)
           (-30.0 30.0)
  end
  begin
     id 15 
     name upperneck
     direction -0.0061965 0.994088 -0.108398   
     length 1.64042   
     axis 0 0 0   XYZ
    dof rx ry rz
    limits (-20.0 45.0)
           (-30.0 30.0)
           (-30.0 30.0)
  end
  begin
     id 16
     name head
     direction -0.00151929 0.998591 -0.0530385  
     length 1.64343  
     axis 0 0 0   XYZ
    dof rx ry rz
    limits (-20.0 45.0)
           (-30.0 30.0)
           (-30.0 30.0)
  end
  begin
     id 17 
     name lclavicle
     direction 0.948974 0.284245 -0.136574  
     length 3.3483  
     axis 0 0 0   XYZ
    dof ry rz
    limits (-20.0 10.0)
           (0.0 20.0)
  end
  begin
     id 18 
     name lhumerus
     direction 1 -4.48961e-011 1.68576e-027   
     length 4.93485   
     axis -180 -30 -90   XYZ
    dof rx ry rz
    limits (-60.0 90.0)
           (-90.0 90.0)
           (-90.0 90.0)
  end
  begin
     id 19
     name lradius
     direction 1 -4.48965e-011 -2.46405e-027   
     length 3.41719   
     axis -180 -30 -90   XYZ
    dof rx
    limits (-10.0 170.0)
  end
  begin
     id 20
     name lwrist
     direction 1 -4.48968e-011 -8.00486e-028   
     length 1.7086   
     axis 3.27501e-015 90 90   XYZ
    dof ry
    limits (-180.0 0.0)
 end
  begin
     id 21 
     name lhand
     direction 1 -4.48977e-011 -1.60161e-027   
     length 0.6241   
     axis 1.02148e-015 90 90   XYZ
    dof rx rz
    limits (-90.0 90.0)
           (-45.0 45.0)
  end
  begin
     id 22 
     name lfingers
     direction 1 -4.49049e-011 -3.21275e-027   
     length 0.503166   
     axis 2.04295e-015 90 90   XYZ
    dof rx
    limits (0.0 90.0)
  end
  begin
     id 23
     name lthumb
     direction 0.707107 -6.34975e-011 0.707107   
     length 0.722448   
     axis -90 45 -1.62303e-014   XYZ
    dof rx rz
    limits (-45.0 45.0)
           (-45.0 45.0)
  end
  begin
     id 24 
     name rclavicle
     direction -0.904485 0.355099 -0.236246   
     length 3.18329  
     axis 0 0 0   XYZ 
    dof ry rz
    limits (-10.0 20.0)
           (-20.0 0.0)
  end
  begin
     id 25 
     name rhumerus
     direction -1 -4.48953e-011 1.32816e-027  
     length 5.22034   
     axis -180 30 90   XYZ
    dof rx ry rz
    limits (-90.0 60.0)
           (-90.0 90.0)
           (-90.0 90.0)
  end
  begin
     id 26 
     name rradius
     direction -1 -4.48965e-011 -3.93727e-027   
     length 3.41809   
     axis -180 30 90   XYZ
    dof rx
    limits (-10.0 170.0)
  end
  begin
     id 27 
     name rwrist
     direction -1 -4.48962e-011 -8.003e-028   
     length 1.70904   
     axis 3.27501e-015 -90 -90   XYZ
    dof ry
    limits (-180.0 0.0)
  end
  begin
     id 28
     name rhand
     direction -1 -4.49008e-011 -1.60365e-027   
     length 0.77534   
     axis 1.02148e-015 -90 -90   XYZ
    dof rx rz
    limits (-90.0 90.0)
           (-45.0 45.0)
  end
  begin
     id 29
     name rfingers
     direction -1 -4.49001e-011 -3.2064e-027   
     length 0.625099   
     axis 2.04295e-015 -90 -90   XYZ
    dof rx
    limits (0.0 90.0)
  end
  begin
     id 30
     name rthumb
     direction -0.707107 -6.34989e-011 0.707107   
     length 0.897521   
     axis -90 -45 1.62303e-014   XYZ
    dof rx rz
    limits (-45.0 45.0)
           (-45.0 45.0)
  end
:hierarchy
  begin
    root lhipjoint rhipjoint lowerback
    lhipjoint lfemur
    lfemur ltibia
    ltibia lfoot
    lfoot ltoes
    rhipjoint rfemur
    rfemur rtibia
    rtibia rfoot
    rfoot rtoes
    lowerback upperback
    upperback thorax
    thorax lowerneck lclavicle rclavicle
    lowerneck upperneck
    upperneck head
    lclavicle lhumerus
    lhumerus lradius
    lradius lwrist
    lwrist lhand lthumb
    lhand lfingers
    rclavicle rhumerus
    rhumerus rradius
    rradius rwrist
    rwrist rhand rthumb
    rhand rfingers
  end

#!OML:ASF \\sashay\E\Suitcase\Project 1\Capture day 1\Session 1\Male1.ASF
:FULLY-SPECIFIED
:DEGREES
848
root 1.25218 17.1602 19.1847 7.1183 8.48753 6.90258
lowerback 4.01905 -2.40055 -8.78484
upperback 0.963752 -3.5537 -0.144335
thorax -0.728043 -1.77229 4.91691
lowerneck -5.556 3.9102 -2.84595
upperneck 16.6697 5.93906 -1.64443
head 5.92888 2.59066 0.348128
rclavicle 3.83654e-014 1.43125e-014
rhumerus -47.1848 -9.29002 -67.4758
rradius 12.9115
rwrist -23.1352
rhand -6.07688 9.7878
rfingers 7.12502
rthumb 19.7584 -19.228
lclavicle 3.83654e-014 1.43125e-014
lhumerus -36.9471 -0.638031 81.1507
lradius 39.4282
lwrist 2.86122
lhand -1.74106 45.505
lfingers 7.12502
lthumb 23.9217 74.0349
rfemur -32.182 -2.0415 11.0683
rtibia 25.5368
rfoot -17.0923 -14.6982
rtoes 26.1822
lfemur 3.96868 -6.73395 -31.2466
ltibia 14.8505
lfoot -6.65159 -13.0414
ltoes 28.156
849
root 1.2547 17.1619 19.3152 7.07369 8.4895 6.26398
lowerback 4.02797 -2.45129 -8.02699
upperback 0.9353 -3.59147 0.00612844
thorax -0.794919 -1.78849 4.65336
lowerneck -5.4407 3.92202 -2.83105
upperneck 16.6241 5.95571 -1.70216
head 5.89695 2.59745 0.325359
rclavicle 1.62506e-014 -1.35174e-014
rhumerus -47.0919 -9.17916 -67.524
rradius 12.4261
rwrist -23.006
rhand -6.18094 9.26533
rfingers 7.12502
rthumb 19.6584 -19.7607
lclavicle 1.62506e-014 -1.35174e-014
lhumerus -37.1507 -1.02634 81.393
lradius 39.6285
lwrist 3.10301
lhand -0.809373 46.2565
lfingers 7.12502
lthumb 24.8149 74.6663
rfemur -31.854 -1.02829 11.3078
rtibia 23.5253
rfoot -18.4532 -14.2315
rtoes 27.0072
lfemur 4.90625 -6.69451 -30.4996
ltibia 13.8273
lfoot -6.04392 -13.161
ltoes 28.4789
850
root 1.24444 17.1561 19.4495 7.31878 8.46066 6.35303
lowerback 3.80697 -2.45447 -8.24817
upperback 0.959215 -3.58205 0.0583247
thorax -0.630208 -1.79151 4.81788
lowerneck -5.73752 3.8725 -2.87251
upperneck 16.7026 5.91047 -1.71195
head 5.97245 2.56735 0.334278
rclavicle 1.83379e-014 -5.1684e-015
rhumerus -47.0228 -9.01506 -67.6205
rradius 12.3866
rwrist -23.401
rhand -6.06176 9.72904
rfingers 7.12502
rthumb 19.773 -19.2852
lclavicle 1.83379e-014 -5.1684e-015
lhumerus -37.11 -1.11482 81.6736
lradius 39.7651
lwrist 2.56692
lhand -0.780756 46.0631
lfingers 7.12502
lthumb 24.8423 74.4692
rfemur -31.6131 0.649486 10.4756
rtibia 21.4495
rfoot -20.0977 -14.3715
rtoes 27.3824
lfemur 5.40736 -6.57979 -30.4319
ltibia 13.2248
lfoot -5.54871 -13.4307
ltoes 29.0253
851
root 1.23699 17.1465 19.5818 7.38968 8.31905 6.07244
lowerback 3.72674 -2.45751 -7.94651
upperback 0.943871 -3.56779 0.102076
thorax -0.619345 -1.78457 4.69087
lowerneck -5.8558 3.88114 -2.84078
upperneck 16.7579 5.91917 -1.67522
head 6.00985 2.57349 0.344753
rclavicle 9.39258e-015 -5.1684e-015
rhumerus -47.0785 -8.80789 -67.7382
rradius 12.3361
rwrist -23.3957
rhand -5.7451 9.30053
rfingers 7.12502
rthumb 20.0774 -19.6821
lclavicle 9.39258e-015 -5.1684e-015
lhumerus -37.1518 -1.67398 81.907
lradius 39.7698
lwrist 2.69565
lhand -1.86258 45.0245
lfingers 7.12502
lthumb 23.8052 73.5697
rfemur -31.3421 2.19068 10.1314
rtibia 19.6294
rfoot -21.5101 -14.347
rtoes 26.8784
lfemur 5.96303 -6.53577 -30.0531
ltibia 12.7932
lfoot -5.14146 -13.4395
ltoes 29.5541
852
root 1.2312 17.1344 19.7103 7.2492 8.22776 5.5331
lowerback 3.87135 -2.41705 -7.40524
upperback 0.942002 -3.50496 0.22362
thorax -0.736564 -1.749 4.52123
lowerneck -5.84982 3.86032 -2.70782
upperneck 16.7809 5.88366 -1.72488
head 6.02144 2.56011 0.305466
rclavicle 5.42185e-014 -2.04748e-014
rhumerus -47.0537 -8.29671 -68.1052
rradius 12.1871
rwrist -23.9702
rhand -5.40892 9.30667
rfingers 7.12502
rthumb 20.4005 -19.6417
lclavicle 5.42185e-014 -2.04748e-014
lhumerus -37.4509 -2.09134 82.1426
lradius 40.2466
lwrist 2.48841
lhand -1.75694 45.1328
lfingers 7.12502
lthumb 23.9065 73.6648
rfemur -31.0648 3.56716 10.1677
rtibia 18.3481
rfoot -22.8483 -14.3786
rtoes 25.6765
lfemur 6.76089 -6.45885 -29.4129
ltibia 12.257
lfoot -4.68562 -13.4957
ltoes 30.1047
853
root 1.21946 17.1154 19.839 7.62228 8.08462 6.00021
lowerback 3.7898 -2.3824 -7.85882
upperback 0.745309 -3.47996 0.0718618
thorax -0.880534 -1.72437 4.61831
lowerneck -5.85653 3.82705 -2.62134
upperneck 16.8826 5.83189 -1.72159
head 6.05709 2.53816 0.290525
rclavicle 2.44008e-014 5.96354e-016
rhumerus -47.5028 -8.68231 -67.7311
rradius 12.3162
rwrist -23.2594
rhand -5.1255 9.00952
rfingers 7.12502
rthumb 20.6728 -19.9095
lclavicle 2.44008e-014 5.96354e-016
lhumerus -37.7751 -2.52165 82.3842
lradius 40.3696
lwrist 2.05647
lhand -1.61672 44.824
lfingers 7.12502
lthumb 24.041 73.3382
rfemur -31.3078 4.28184 9.29604
rtibia 17.3794
rfoot -23.6934 -14.45
rtoes 24.0301
lfemur 7.04576 -6.44786 -29.7947
ltibia 11.8932
lfoot -4.23767 -13.6248
ltoes 30.6207
854
root 1.21057 17.0929 19.972 7.86095 7.78517 6.51205
lowerback 3.71973 -2.28809 -8.40423
upperback 0.63478 -3.37601 -0.0536791
thorax -0.946278 -1.66496 4.78935
lowerneck -5.83465 3.78794 -2.63521
upperneck 16.919 5.78775 -1.76145
head 6.06595 2.51241 0.277315
rclavicle -1.23743e-014 -1.0138e-014
rhumerus -47.7348 -8.68097 -67.5885
rradius 12.4187
rwrist -23.2301
rhand -4.96148 9.23626
rfingers 7.12502
rthumb 20.8304 -19.6655
lclavicle -1.23743e-014 -1.0138e-014
lhumerus -37.9662 -3.14946 82.7884
lradius 40.6502
lwrist 2.39884
lhand -1.1867 45.7913
lfingers 7.12502
lthumb 24.4532 74.2505
rfemur -31.5241 4.70306 8.58125
rtibia 16.7971
rfoot -24.0957 -14.5307
rtoes 22.1336
lfemur 7.44785 -6.39643 -30.3065
ltibia 11.648
lfoot -3.93832 -13.6425
ltoes 30.843
855
root 1.20991 17.0761 20.1019 7.77525 7.4879 6.33934
lowerback 3.79169 -2.12883 -8.10546
upperback 0.701934 -3.15647 -0.0894002
thorax -0.966832 -1.55724 4.58096
lowerneck -5.94464 3.71179 -2.51175
upperneck 16.9034 5.68652 -1.84151
head 6.08622 2.46428 0.227654
rclavicle 6.90777e-015 1.64991e-014
rhumerus -47.8358 -8.95928 -67.4631
rradius 12.4443
rwrist -22.9244
rhand -4.94778 9.20158
rfingers 7.12502
rthumb 20.8436 -19.6988
lclavicle 6.90777e-015 1.64991e-014
lhumerus -37.909 -3.63992 83.0525
lradius 40.7009
lwrist 2.30606
lhand -1.52324 45.9107
lfingers 7.12502
lthumb 24.1306 74.4131
rfemur -31.6774 4.23248 9.13252
rtibia 16.8206
rfoot -23.5837 -14.0307
rtoes 19.945
lfemur 8.21996 -6.23041 -30.1216
ltibia 11.1795
lfoot -3.58152 -13.7079
ltoes 30.9823
856
root 1.1681 17.0535 20.2468 7.8586 6.89777 6.28826
lowerback 3.35989 -1.89226 -8.57224
upperback 0.853334 -2.80898 -0.0461275
thorax -0.589979 -1.40387 4.85422
lowerneck -5.96908 3.64411 -2.37257
upperneck 16.7446 5.59032 -1.95085
head 6.04748 2.42139 0.162783
rclavicle -3.05134e-014 -1.66979e-014
rhumerus -47.7303 -9.14052 -67.5025
rradius 12.3498
rwrist -22.5771
rhand -4.48611 9.11082
rfingers 7.12502
rthumb 21.2871 -19.7401
lclavicle -3.05134e-014 -1.66979e-014
lhumerus -37.783 -3.96231 83.2245
lradius 40.8916
lwrist 1.84903
lhand -0.421903 46.3458
lfingers 7.12502
lthumb 25.1862 74.704
rfemur -32.0672 5.06647 9.28233
rtibia 16.9756
rfoot -23.2638 -14.5529
rtoes 18.5336
lfemur 8.66626 -6.15186 -29.9722
ltibia 10.902
lfoot -3.261 -13.494
ltoes 31.0936
857
root 1.18447 17.0294 20.3684 7.71126 7.1802 6.46863
lowerback 3.91438 -2.06402 -8.37012
upperback 0.819638 -3.08682 -0.123709
thorax -0.910508 -1.52763 4.69348
lowerneck -6.08847 3.72296 -2.29353
upperneck 16.786 5.72238 -2.1222
head 6.08889 2.47483 0.108496
rclavicle -1.54058e-014 1.92821e-014
rhumerus -47.6479 -8.73778 -67.7382
rradius 12.3221
rwrist -22.8543
rhand -4.87804 8.84786
rfingers 7.12502
rthumb 20.9106 -20.0451
lclavicle -1.54058e-014 1.92821e-014
lhumerus -38.042 -3.80406 83.3855
lradius 40.9236
lwrist 1.3064
lhand -0.660979 45.3656
lfingers 7.12502
lthumb 24.9571 73.7558
rfemur -31.8365 2.72296 10.0453
rtibia 17.2836
rfoot -21.1343 -13.2013
rtoes 16.6408
lfemur 9.48141 -6.35937 -30.1772
ltibia 10.6958
lfoot -2.81223 -13.7276
ltoes 31.9974
